<svg width="70" height="67" viewBox="0 0 70 67" fill="none" xmlns="http://www.w3.org/2000/svg">
<path d="M53.6637 55.8607H26.2365L57.0484 11.1906C57.5825 10.4161 57.9969 9.56662 58.2777 8.67043C58.5569 7.77563 58.6983 6.84415 58.6971 5.90746C58.6979 5.13195 58.5446 4.3639 58.246 3.64721C57.9474 2.93052 57.5094 2.27925 56.957 1.73061C56.4046 1.18198 55.7487 0.746743 55.0266 0.449795C54.3046 0.152846 53.5307 -3.71966e-07 52.7491 0H16.7698C15.3415 0.0461198 13.9871 0.641527 12.9932 1.66034C11.9993 2.67916 11.4435 4.04154 11.4435 5.45949C11.4435 6.87744 11.9993 8.23982 12.9932 9.25863C13.9871 10.2774 15.3415 10.8729 16.7698 10.919H43.5679L12.2432 56.2307C11.2511 57.6785 10.7175 59.3874 10.711 61.1381C10.7072 61.8826 10.8521 62.6205 11.1373 63.3091C11.4225 63.9977 11.8422 64.6234 12.3725 65.1501C12.9028 65.6768 13.533 66.0941 14.2268 66.3777C14.9205 66.6614 15.664 66.8059 16.4144 66.8028H53.6987C54.4363 66.8266 55.1713 66.703 55.8598 66.4394C56.5484 66.1758 57.1764 65.7774 57.7066 65.2681C58.2369 64.7588 58.6586 64.1489 58.9466 63.4747C59.2346 62.8004 59.383 62.0756 59.383 61.3433C59.383 60.611 59.2346 59.8862 58.9466 59.212C58.6586 58.5378 58.2369 57.9278 57.7066 57.4185C57.1764 56.9092 56.5484 56.5109 55.8598 56.2473C55.1713 55.9836 54.4363 55.86 53.6987 55.8839L53.6637 55.8607Z" fill="#006CEA"/>
<path fill-rule="evenodd" clip-rule="evenodd" d="M28.8395 24.2578H3.73634C1.67282 24.2578 0 25.9306 0 27.9941C0 30.0577 1.67282 31.7305 3.73634 31.7305H23.6535L28.8395 24.2578ZM65.7595 31.7305H48.4391L53.4418 24.5218C53.5012 24.4362 53.5539 24.348 53.6002 24.2578H65.7595C67.8231 24.2578 69.4959 25.9306 69.4959 27.9941C69.4959 30.0577 67.8231 31.7305 65.7595 31.7305Z" fill="#006CEA"/>
<path fill-rule="evenodd" clip-rule="evenodd" d="M20.473 36.3203H3.73634C1.67282 36.3203 0 37.9931 0 40.0566C0 42.1202 1.67282 43.793 3.73634 43.793H15.2871L20.473 36.3203ZM65.7595 43.793H40.0723L45.2583 36.3203H65.7595C67.8231 36.3203 69.4959 37.9931 69.4959 40.0566C69.4959 42.1202 67.8231 43.793 65.7595 43.793Z" fill="#006CEA"/>
</svg>
