<svg width="166" height="33" viewBox="0 0 166 33" fill="none" xmlns="http://www.w3.org/2000/svg">
<path d="M164.09 10.0968C163.7 10.0979 163.319 10.2154 162.999 10.4338C162.679 10.6521 162.434 10.9609 162.297 11.319L158.711 20.6907L155.126 11.319C155.037 11.0874 154.902 10.8751 154.73 10.6945C154.557 10.5138 154.35 10.3682 154.12 10.2661C153.89 10.1639 153.642 10.1072 153.389 10.0991C153.137 10.0909 152.885 10.1316 152.649 10.2188C152.413 10.306 152.196 10.4379 152.012 10.6071C151.828 10.7763 151.679 10.9794 151.575 11.2049C151.471 11.4303 151.413 11.6737 151.404 11.9211C151.396 12.1684 151.438 12.415 151.527 12.6467L156.638 26.0189L156.178 27.2372C155.809 28.1509 155.401 28.5355 154.831 28.6781C154.765 28.6957 154.702 28.7074 154.632 28.7191C154.614 28.7191 154.602 28.7191 154.584 28.7191C154.217 28.8234 153.889 29.031 153.641 29.3163C153.393 29.6017 153.236 29.952 153.19 30.324V30.7926C153.248 31.2504 153.473 31.6723 153.823 31.9805C154.173 32.2886 154.625 32.4624 155.096 32.4697H155.124C155.214 32.4697 155.301 32.4521 155.387 32.4463C155.401 32.4463 155.405 32.4463 155.411 32.4463C158.379 32.1788 158.913 30.6051 160.12 27.5808L165.878 12.6428C165.987 12.358 166.023 12.0519 165.985 11.7503C165.947 11.4487 165.835 11.1606 165.659 10.9104C165.483 10.6601 165.249 10.4552 164.975 10.3129C164.701 10.1706 164.396 10.0951 164.086 10.0929L164.09 10.0968Z" fill="#262626"/>
<path d="M60.2224 10.8368C60.0242 10.6431 59.7856 10.4937 59.5229 10.399C59.2602 10.3043 58.9797 10.2665 58.7006 10.2882C58.2097 10.3395 57.7558 10.5676 57.4267 10.9284C57.0977 11.2891 56.9171 11.7567 56.9199 12.2406V24.3008C56.9183 24.8017 57.1192 25.2829 57.4787 25.6389C57.8382 25.995 58.327 26.1969 58.8381 26.2005C59.3591 26.1898 59.8551 25.9794 60.2196 25.6144C60.5842 25.2494 60.7883 24.7589 60.7882 24.2481V12.182C60.7887 11.9324 60.739 11.6851 60.6419 11.4542C60.5449 11.2234 60.4023 11.0136 60.2224 10.8368ZM58.8281 3.56988C57.4736 3.56988 56.637 4.41723 56.637 5.71755C56.637 7.01787 57.4696 7.8867 58.8122 7.89061C59.3874 7.8864 59.9386 7.66441 60.3506 7.27107C60.7627 6.87773 61.0037 6.34348 61.0232 5.78003C61.061 4.44457 60.1866 3.56402 58.8381 3.56402L58.8281 3.56988Z" fill="#262626"/>
<path d="M82.0124 10.0953C79.899 10.0953 78.166 11.1574 77.0884 12.9888C75.9231 11.1574 74.0845 10.0953 71.6982 10.0953C69.8596 10.0953 68.1267 11.1066 67.5331 12.5143V12.1648C67.5328 11.9049 67.4777 11.6478 67.3711 11.4098C67.2646 11.1717 67.109 10.9579 66.914 10.7816C66.7191 10.6054 66.489 10.4706 66.2384 10.3858C65.9877 10.3009 65.7218 10.2678 65.4575 10.2886C64.9687 10.3355 64.5157 10.5606 64.1881 10.9192C63.8606 11.2779 63.6823 11.744 63.6886 12.2254V24.3207C63.6874 24.5786 63.7406 24.8339 63.8446 25.0707C63.9487 25.3076 64.1015 25.5208 64.2936 25.6971C64.4856 25.8734 64.7126 26.009 64.9605 26.0953C65.2084 26.1816 65.4719 26.2169 65.7344 26.1989C66.2278 26.1566 66.6867 25.9331 67.0191 25.5732C67.3515 25.2134 67.533 24.7437 67.5271 24.2582V18.2428C67.5271 15.7202 68.9832 13.8635 71.015 13.8635C73.1563 13.8635 74.5327 15.5914 74.5327 18.2135V24.3051C74.5323 24.5819 74.5938 24.8555 74.7127 25.1066C74.8316 25.3578 75.0052 25.5803 75.2212 25.7588C75.4372 25.9372 75.6904 26.0671 75.963 26.1394C76.2357 26.2118 76.5212 26.2247 76.7995 26.1774C77.2557 26.0918 77.6668 25.8517 77.9606 25.499C78.2545 25.1464 78.4125 24.7037 78.407 24.2484V18.2076C78.407 15.7144 79.8711 13.8576 81.873 13.8576C84.0382 13.8576 85.4186 15.5855 85.4186 18.2076V24.2992C85.4186 24.7997 85.62 25.2799 85.9792 25.6357C86.3384 25.9914 86.8263 26.1938 87.3369 26.1989C87.8579 26.1882 88.3538 25.9778 88.7184 25.6128C89.0829 25.2478 89.2871 24.7573 89.287 24.2465V18.2076C89.2929 13.3383 86.4823 10.0953 82.0124 10.0953Z" fill="#262626"/>
<path d="M107.573 10.8313C107.375 10.6401 107.139 10.4927 106.878 10.399C106.618 10.3054 106.34 10.2677 106.063 10.2886C105.575 10.327 105.122 10.5505 104.8 10.9114C104.474 11.2743 104.294 11.7416 104.294 12.2254V12.5143C103.617 11.0793 101.533 10.0953 99.4457 10.0953C94.7069 10.0953 91.703 13.3383 91.703 18.2154C91.6945 19.1994 91.8287 20.1795 92.1014 21.1265C93.0675 24.3636 95.7188 26.361 99.4417 26.361C99.9742 26.357 100.504 26.2915 101.021 26.1657C102.511 25.8143 103.81 24.9943 104.29 23.9614V24.3109C104.289 24.5611 104.34 24.8089 104.439 25.0392C104.534 25.2631 104.674 25.4662 104.85 25.6366C105.118 25.9011 105.46 26.0816 105.833 26.1553C106.205 26.229 106.592 26.1926 106.944 26.0506C107.295 25.9086 107.596 25.6674 107.808 25.3577C108.019 25.048 108.132 24.6837 108.132 24.3109V12.1648C108.133 11.9174 108.084 11.6722 107.988 11.4434C107.892 11.2146 107.751 11.0066 107.573 10.8313ZM99.9357 22.5674C97.3103 22.5674 95.5773 20.8454 95.5773 18.2154C95.5773 15.5855 97.3103 13.8635 99.9357 13.8635C102.479 13.8635 104.294 15.6929 104.294 18.2428C104.294 20.7926 102.531 22.5674 99.9357 22.5674Z" fill="#262626"/>
<path d="M52.7569 22.5183H43.3789L53.9142 7.42986C54.0968 7.16824 54.2385 6.88131 54.3345 6.5786C54.43 6.27636 54.4783 5.96173 54.4779 5.64534C54.4782 5.3834 54.4257 5.12397 54.3237 4.88189C54.2216 4.63981 54.0718 4.41983 53.8829 4.23451C53.694 4.0492 53.4698 3.90219 53.2229 3.80188C52.976 3.70158 52.7114 3.64996 52.4442 3.64996H40.142C39.6536 3.66553 39.1905 3.86665 38.8507 4.21078C38.5108 4.55491 38.3208 5.01508 38.3208 5.49403C38.3208 5.97297 38.5108 6.43315 38.8507 6.77728C39.1905 7.12141 39.6536 7.32252 40.142 7.3381H49.3049L38.5942 22.6432C38.255 23.1322 38.0726 23.7095 38.0703 24.3008C38.069 24.5523 38.1186 24.8015 38.2161 25.0341C38.3136 25.2667 38.4571 25.4781 38.6384 25.656C38.8198 25.8339 39.0352 25.9748 39.2725 26.0706C39.5097 26.1664 39.7639 26.2152 40.0204 26.2142H52.7688C53.021 26.2223 53.2723 26.1805 53.5078 26.0915C53.7432 26.0024 53.9579 25.8679 54.1392 25.6958C54.3206 25.5238 54.4648 25.3178 54.5632 25.09C54.6617 24.8623 54.7124 24.6175 54.7124 24.3701C54.7124 24.1228 54.6617 23.878 54.5632 23.6502C54.4648 23.4225 54.3206 23.2165 54.1392 23.0444C53.9579 22.8724 53.7432 22.7379 53.5078 22.6488C53.2723 22.5598 53.021 22.518 52.7688 22.5261L52.7569 22.5183Z" fill="#262626"/>
<path d="M148.61 12.0281V24.3597C148.611 24.8633 148.409 25.3468 148.048 25.7059C147.688 26.0649 147.198 26.2707 146.684 26.2789H146.617C146.103 26.2702 145.614 26.0642 145.254 25.7052C144.894 25.3462 144.692 24.863 144.692 24.3597V24.0649H144.676C144.153 25.0743 142.868 25.8767 141.394 26.2262C140.868 26.3531 140.328 26.4186 139.786 26.4214C139.499 26.4214 139.221 26.4097 138.946 26.3863C137.102 26.221 135.377 25.4239 134.073 24.1351L124.582 14.8357C123.817 14.1504 122.763 13.7638 121.512 13.7638C118.965 13.7638 117.13 15.5659 117.078 18.0982V18.393C117.134 20.9175 118.929 22.6201 121.512 22.6201C122.753 22.6201 123.799 22.2413 124.562 21.5677C124.66 21.4809 124.754 21.389 124.843 21.2924L126.857 19.3165C126.9 19.2761 126.952 19.2472 127.01 19.2326C127.064 19.2203 127.12 19.2215 127.173 19.2362C127.227 19.2509 127.275 19.2785 127.315 19.3165L127.58 19.5782L129.408 21.3685L129.789 21.7376C129.849 21.7972 129.883 21.8779 129.883 21.9621C129.883 22.0462 129.849 22.127 129.789 22.1866L128.365 23.5982L127.835 24.1234L127.337 24.6174C127.235 24.7092 127.137 24.797 127.02 24.8829C125.719 25.9079 124.018 26.4781 122.014 26.4781C121.472 26.4752 120.933 26.4097 120.407 26.2828C118.909 25.9275 117.606 25.1114 117.098 24.0727H117.082V31.0116C117.087 31.2813 117.035 31.5491 116.929 31.7981C116.823 32.047 116.666 32.2718 116.467 32.4582C116.268 32.6445 116.032 32.7885 115.773 32.8809C115.515 32.9734 115.239 33.0123 114.965 32.9953C114.468 32.9593 114.004 32.7404 113.665 32.3825C113.326 32.0247 113.138 31.5545 113.138 31.0663V12.0262C113.138 11.5543 113.314 11.0986 113.633 10.7451C113.952 10.3916 114.391 10.1646 114.869 10.1069H115.349C115.827 10.1642 116.268 10.391 116.587 10.7445C116.906 11.0981 117.082 11.554 117.082 12.0262V12.3503H117.098C117.803 10.9094 119.907 9.92339 122.014 9.92339H122.213C124.279 9.97538 126.246 10.7956 127.717 12.2175L136.707 21.0562C137.61 21.9635 138.834 22.4966 140.127 22.5459H140.282C142.362 22.5459 143.931 21.4408 144.491 19.6895C144.626 19.2614 144.693 18.8156 144.69 18.3677V17.9889C144.696 17.2351 144.496 16.4935 144.111 15.8412C143.356 14.5878 141.993 13.8107 140.326 13.8107C139.075 13.8107 138.021 14.2012 137.256 14.8806L137.245 14.8923C137.207 14.9255 137.171 14.9607 137.135 14.9958C137.099 15.031 137.063 15.0661 137.029 15.1032L134.956 17.0556C134.926 17.0853 134.89 17.1088 134.851 17.1248C134.812 17.1409 134.769 17.1491 134.727 17.1491C134.684 17.1491 134.642 17.1409 134.603 17.1248C134.563 17.1088 134.528 17.0853 134.498 17.0556L132.107 14.7127C132.047 14.6528 132.014 14.5722 132.014 14.4882C132.014 14.4042 132.047 14.3235 132.107 14.2636L133.936 12.3952L134.466 11.8758C134.52 11.8231 134.573 11.7723 134.631 11.7216C134.689 11.6708 134.743 11.624 134.802 11.5771L134.95 11.4658C136.233 10.5052 137.886 9.9722 139.822 9.9722C141.886 9.9722 143.943 10.9191 144.692 12.3151V12.0379C144.692 11.5509 144.881 11.082 145.22 10.7261C145.559 10.3702 146.023 10.1537 146.519 10.1206H146.788C147.281 10.1546 147.743 10.37 148.081 10.7238C148.419 11.0775 148.608 11.5434 148.61 12.0281Z" fill="#006CEA"/>
<path d="M28.3477 27.9354C28.3461 28.3892 28.1612 28.8239 27.8335 29.1444C27.5057 29.465 27.0618 29.6452 26.5988 29.6457H5.00822C4.54507 29.6457 4.10081 29.4656 3.77294 29.145C3.44507 28.8244 3.26035 28.3894 3.2593 27.9354C3.25755 27.5691 3.37862 27.2124 3.6039 26.9201L3.61387 26.9104L4.01225 26.3481L20.3581 3.42651H5.05602C4.5894 3.42671 4.1411 3.24856 3.80635 2.92992C3.47159 2.61129 3.27676 2.17727 3.26328 1.72009C3.2625 1.49497 3.30698 1.27191 3.39415 1.06363C3.48132 0.855358 3.60944 0.66595 3.77128 0.506224C3.93313 0.346499 4.12551 0.219584 4.3374 0.132725C4.54929 0.0458666 4.77655 0.000767878 5.00622 0H26.4434C26.7476 0.000447993 27.0462 0.0797088 27.309 0.229748C27.5718 0.379787 27.7895 0.595268 27.94 0.85435C28.0904 1.11343 28.1683 1.4069 28.1658 1.70501C28.1632 2.00311 28.0803 2.29526 27.9254 2.55183L27.8119 2.71778L27.4912 3.1766L11.3186 26.229H26.5948C27.0578 26.2264 27.5029 26.404 27.8323 26.7229C28.1617 27.0417 28.3485 27.4757 28.3517 27.9295L28.3477 27.9354Z" fill="#006CEA"/>
<path d="M9.94216 15.7848L8.06577 18.4655H1.42066C1.23669 18.4724 1.05318 18.4428 0.881148 18.3786C0.709113 18.3143 0.552084 18.2167 0.419444 18.0916C0.286804 17.9664 0.181298 17.8163 0.109226 17.6503C0.0371533 17.4842 0 17.3056 0 17.1252C0 16.9447 0.0371533 16.7661 0.109226 16.6001C0.181298 16.434 0.286804 16.2839 0.419444 16.1588C0.552084 16.0337 0.709113 15.936 0.881148 15.8718C1.05318 15.8075 1.23669 15.7779 1.42066 15.7848H9.94216Z" fill="#006CEA"/>
<path d="M31.2178 17.1252C31.2178 17.4804 31.0738 17.8211 30.8176 18.0723C30.5613 18.3234 30.2137 18.4645 29.8513 18.4645H18.1965L20.071 15.7839H29.8493C30.2119 15.7839 30.5597 15.9249 30.8163 16.176C31.0729 16.4272 31.2173 16.7678 31.2178 17.1232V17.1252Z" fill="#006CEA"/>
<path d="M13.1651 11.179L11.2867 13.8617H1.42068C1.05774 13.8617 0.709651 13.7204 0.453016 13.4688C0.19638 13.2173 0.0522461 12.8761 0.0522461 12.5204C0.0522461 12.1646 0.19638 11.8234 0.453016 11.5719C0.709651 11.3204 1.05774 11.179 1.42068 11.179H13.1651Z" fill="#006CEA"/>
<path d="M31.2178 12.5223C31.2178 12.8775 31.0738 13.2182 30.8176 13.4694C30.5613 13.7206 30.2137 13.8617 29.8513 13.8617H21.4155L23.3019 11.179H29.8613C30.2223 11.1826 30.5674 11.3257 30.8214 11.5773C31.0754 11.8288 31.2178 12.1684 31.2178 12.5223Z" fill="#006CEA"/>
</svg>
